<?xml version="1.0" standalone="no"?>
<!DOCTYPE svg PUBLIC "-//W3C//DTD SVG 20010904//EN"
 "http://www.w3.org/TR/2001/REC-SVG-20010904/DTD/svg10.dtd">
<svg version="1.0" xmlns="http://www.w3.org/2000/svg"
 width="229.000000pt" height="229.000000pt" viewBox="0 0 229.000000 229.000000"
 preserveAspectRatio="xMidYMid meet">
<metadata>
Created by potrace 1.11, written by Peter Selinger 2001-2013
</metadata>
<g transform="translate(0.000000,229.000000) scale(0.100000,-0.100000)"
fill="#000000" stroke="none">
<path d="M1760 2042 l0 -177 -658 -658 -657 -657 -178 -1 -177 -1 -1 -26 c-4
-140 1 -366 10 -371 5 -4 94 -6 198 -6 l188 0 5 181 5 182 322 321 321 322
311 -311 311 -310 0 -193 0 -192 200 0 c171 0 200 2 201 15 1 20 1 327 0 363
l-1 28 -147 -2 c-82 0 -155 0 -164 0 -11 1 -599 578 -658 646 -2 3 136 144
306 315 l310 310 177 0 c161 0 176 2 177 18 1 22 1 353 0 370 -1 9 -48 12
-201 12 l-200 0 0 -178z m335 -22 l0 -135 -135 0 -135 0 0 130 c0 72 3 132 7
135 3 3 64 5 135 5 l128 0 0 -135z m-1690 -1539 c19 -1 20 -8 20 -133 l-1
-133 -135 -2 -135 -2 -2 134 c-2 119 0 134 15 137 14 2 164 2 238 -1z m1671
-1 c21 0 21 -4 22 -134 l0 -135 -136 0 -137 -1 1 127 c1 71 2 131 3 135 1 9
67 14 156 11 39 -1 80 -2 91 -3z"/>
</g>
</svg>
